<?xml version="1.0" encoding="utf-8"?>
<svg id="master-artboard" viewBox="0 0 1400 980" version="1.1" xmlns="http://www.w3.org/2000/svg" x="0px" y="0px" style="enable-background:new 0 0 1400 980;" width="1400px" height="980px"><defs><style id="ee-google-fonts">@import url(https://fonts.googleapis.com/css?family=Abril+Fatface:400);</style><path id="text-path-0" d="M 479.84100341796875 475.5331726074219 A 100 -72 0 0 0 667.9024047851562 475.5331726074219 A 100 -72 0 0 0 479.84100341796875 475.5331726074219 Z" style="fill: none; stroke: red; stroke-width: 2;"/></defs><rect id="ee-background" x="0" y="0" width="1400" height="980" style="fill: rgb(255, 255, 255); fill-opacity: 1; pointer-events: none;"/><g transform="matrix(4.808425005115423, 0, 0, 4.808425005115423, 25.77750942067881, -141.70979008677634)"><g id="g-1" transform="matrix(1, 0, 0, 1, 0, 0)">
	<g id="g-2">
		<path class="st0" d="M58,49h100v100H58V49z" style="fill: rgb(255, 255, 255); stroke: rgb(0, 0, 0);"/>
	</g>
</g></g><path d="M 0.8799999952316284 0.6000003814697266 L 13.4399995803833 0.6000003814697266 C 17.33333396911621 0.6000003814697266 20.253334045410156 1.1233329772949219 22.200000762939453 2.1700000762939453 C 24.14666748046875 3.2233333587646484 25.1200008392334 4.996665954589844 25.1200008392334 7.489999771118164 C 25.1200008392334 11.323333740234375 22.809999465942383 13.620000839233398 18.190000534057617 14.380000114440918 L 18.190000534057617 14.460000038146973 C 23.790000915527344 15.15999984741211 26.59000015258789 17.59666633605957 26.59000015258789 21.770000457763672 C 26.59000015258789 24.823333740234375 25.440000534057617 26.956666946411133 23.139999389648438 28.170000076293945 C 20.84666633605957 29.389999389648438 17.543333053588867 30 13.229999542236328 30 L 0.8799999952316284 30 L 0.8799999952316284 29.200000762939453 L 3.609999895095825 29.200000762939453 L 3.609999895095825 1.3999996185302734 L 0.8799999952316284 1.3999996185302734 L 0.8799999952316284 0.6000003814697266 M 11.800000190734863 15.130000114440918 L 11.800000190734863 29.200000762939453 L 13.779999732971191 29.200000762939453 C 15.319999694824219 29.200000762939453 16.39666748046875 28.670000076293945 17.010000228881836 27.610000610351562 C 17.623332977294922 26.543333053588867 17.93000030517578 24.97333335876465 17.93000030517578 22.899999618530273 L 17.93000030517578 20.68000030517578 C 17.93000030517578 18.82666778564453 17.553333282470703 17.439998626708984 16.799999237060547 16.520000457763672 C 16.046667098999023 15.59333324432373 14.703332901000977 15.130000114440918 12.770000457763672 15.130000114440918 L 11.800000190734863 15.130000114440918 M 11.800000190734863 1.3999996185302734 L 11.800000190734863 14.329999923706055 L 12.890000343322754 14.329999923706055 C 14.350000381469727 14.329999923706055 15.366666793823242 13.889999389648438 15.9399995803833 13.010000228881836 C 16.513334274291992 12.129999160766602 16.799999237060547 10.780000686645508 16.799999237060547 8.959999084472656 L 16.799999237060547 6.979999542236328 C 16.799999237060547 4.913333892822266 16.546667098999023 3.4666671752929688 16.040000915527344 2.6399993896484375 C 15.539999961853027 1.813333511352539 14.576666831970215 1.3999996185302734 13.149999618530273 1.3999996185302734 L 11.800000190734863 1.3999996185302734 Z" transform="matrix(6.703437805175781, 0, 0, 6.703437805175781, 368.44091796875, 166.2307586669922)" style="fill: rgb(47, 47, 47); white-space: pre; color: rgb(255, 255, 255);"/><path d="M 581.2941284179688 520.4295654296875 C 589.7874145507812 520.4295654296875 595.2074584960938 518.8695678710938 597.5540771484375 515.7495727539062 C 599.8941040039062 512.6229248046875 601.0640869140625 507.32958984375 601.0640869140625 499.86956787109375 L 601.0641479492188 449.39959716796875 L 584.4141235351562 449.3995666503906 L 584.4141235351562 443.6795654296875 L 659.3441162109375 443.6795959472656 L 659.3441162109375 449.39959716796875 L 649.194091796875 449.39959716796875 L 649.194091796875 522.7695922851562 L 645.2941284179688 522.7695922851562 C 642.1741333007812 518.436279296875 637.7507934570312 516.2695922851562 632.0241088867188 516.2695922851562 C 629.597412109375 516.2695922851562 622.357421875 517.82958984375 610.3040771484375 520.9495849609375 C 598.2440795898438 524.069580078125 587.9674072265625 525.6295776367188 579.47412109375 525.6295776367188 C 551.2007446289062 525.6295776367188 529.30078125 517.9995727539062 513.7741088867188 502.73956298828125 C 498.2541198730469 487.4728698730469 490.4941101074219 464.5328674316406 490.494140625 433.9195556640625 C 490.494140625 403.30621337890625 498.6007995605469 379.67620849609375 514.8141479492188 363.029541015625 C 531.0341796875 346.376220703125 552.8474731445312 338.049560546875 580.254150390625 338.0495910644531 C 590.8341674804688 338.0495910644531 601.4574584960938 339.3929138183594 612.1241455078125 342.07958984375 C 622.7908325195312 344.7662658691406 628.9908447265625 346.1095886230469 630.72412109375 346.1095886230469 C 632.4574584960938 346.1095886230469 633.7575073242188 345.7196044921875 634.6241455078125 344.9396057128906 C 635.4908447265625 344.15960693359375 636.4441528320312 342.8162536621094 637.484130859375 340.90960693359375 L 640.3441772460938 340.90960693359375 L 642.4341430664062 397.3695983886719 L 637.744140625 397.3695983886719 C 629.244140625 380.5429382324219 620.7041625976562 367.3162536621094 612.1241455078125 357.6895751953125 C 603.5374755859375 348.06292724609375 593.9541625976562 343.24957275390625 583.3741455078125 343.24957275390625 C 556.8341674804688 343.24957275390625 543.5641479492188 369.1795654296875 543.5641479492188 421.03955078125 L 543.5641479492188 441.59954833984375 C 543.5640869140625 467.6128845214844 546.8174438476562 487.2562255859375 553.3240966796875 500.5295715332031 C 559.8240966796875 513.7962036132812 569.1474609375 520.4295654296875 581.2941284179688 520.4295654296875 Z" transform="matrix(0.9862101674079895, 0, 0, 1.0793401002883911, 42.84115219116211, -44.952606201171875)" style="fill: rgb(47, 47, 47); white-space: pre; color: rgb(51, 51, 51);"/></svg>